# xmcd
# 
# Track frame offsets:
#     150
#     27394
#     42324
#     62852
#     82707
#     112141
#     131124
#     147275
#     162276
#     181677
#     199574
#     217610
#     245669
#     261009
#     278507
#     302327
#     321544
# 
# Disc length: 4667
# 
# Revision: 4
# Processed by: cddbd v1.5.2PL0 Copyright (c) Steve Scherf et al.
# Submitted via: fre:ac v1.0.27
# 
DISCID=eb123911
DTITLE=Various Artist - Les Nocturnes Rock
DYEAR=2013
DGENRE=Rock
TTITLE0=Beth Hart and Joe Bonamassa - Something's got a hold on Me
TTITLE1=John Mayer - Waiting on the world to change
TTITLE2=The Dooble Brothers - Nobody
TTITLE3=Sephen Stills - Drivin'Thunder
TTITLE4=Jeff Healey - Like a Huricane
TTITLE5=Robert Plant and Alison Krauss - Killing the blues
TTITLE6=Selah Sue - Mommy
TTITLE7=Birdy - Skinny Love
TTITLE8=Ed Sheeran - The A team
TTITLE9=Rumer - A man needs a maid
TTITLE10=Marianne Faithfull - Crazy Love
TTITLE11=Jonathan Wilson and Graham Nash - Isn't it a pity
TTITLE12=Tom Petty - Square One
TTITLE13=Jack White - On and on and on
TTITLE14=Mull Historical Society - Paper Houses
TTITLE15=Elvis Presley - An American Trilogy
TTITLE16=Ray Charles - I got a woman
EXTD=
EXTT0=
EXTT1=
EXTT2=
EXTT3=
EXTT4=
EXTT5=
EXTT6=
EXTT7=
EXTT8=
EXTT9=
EXTT10=
EXTT11=
EXTT12=
EXTT13=
EXTT14=
EXTT15=
EXTT16=
PLAYORDER=
